<svg width="16" height="16" viewBox="0 0 16 16" fill="none" xmlns="http://www.w3.org/2000/svg">
<path d="M9.25 13V9.25H13C13.1381 9.25 13.25 9.36193 13.25 9.5V13C13.25 13.1381 13.1381 13.25 13 13.25H9.5C9.36193 13.25 9.25 13.1381 9.25 13ZM2.75 9.5C2.75 9.36193 2.86193 9.25 3 9.25H6.75V13C6.75 13.1381 6.63807 13.25 6.5 13.25H3C2.86193 13.25 2.75 13.1381 2.75 13V9.5ZM9.25 3C9.25 2.86193 9.36193 2.75 9.5 2.75H13C13.1381 2.75 13.25 2.86193 13.25 3V6.5C13.25 6.63807 13.1381 6.75 13 6.75H9.25V3ZM2.75 3C2.75 2.86193 2.86193 2.75 3 2.75H6.5C6.63807 2.75 6.75 2.86193 6.75 3V6.75H3C2.86193 6.75 2.75 6.63807 2.75 6.5V3Z" stroke="white" stroke-width="1.5"/>
</svg>
