<svg width="16" height="16" viewBox="0 0 16 16" fill="none" xmlns="http://www.w3.org/2000/svg">
    <path fill-rule="evenodd" clip-rule="evenodd"
        d="M8.00005 13.7143C11.156 13.7143 13.7143 11.156 13.7143 8.00005C13.7143 4.84414 11.156 2.28577 8.00005 2.28577C4.84414 2.28577 2.28577 4.84414 2.28577 8.00005C2.28577 11.156 4.84414 13.7143 8.00005 13.7143ZM8 11.4286C9.89355 11.4286 11.4286 9.89355 11.4286 8C11.4286 6.10645 9.89355 4.57143 8 4.57143C6.10645 4.57143 4.57143 6.10645 4.57143 8C4.57143 9.89355 6.10645 11.4286 8 11.4286Z"
        fill="white" />
    <rect y="6.85718" width="3.42857" height="2.28571" rx="0.5" fill="white" />
    <rect x="4.98962" y="0.500366" width="3.42857" height="2.28571" rx="0.5" transform="rotate(60 4.98962 0.500366)"
        fill="white" />
    <rect x="12.9896" y="1.64319" width="3.42857" height="2.28571" rx="0.5" transform="rotate(120 12.9896 1.64319)"
        fill="white" />
    <rect x="12.5714" y="6.85718" width="3.42857" height="2.28571" rx="0.5" fill="white" />
    <rect x="11.2754" y="11.3876" width="3.42857" height="2.28571" rx="0.5" transform="rotate(60 11.2754 11.3876)"
        fill="white" />
    <rect x="6.70398" y="12.5304" width="3.42857" height="2.28571" rx="0.5" transform="rotate(120 6.70398 12.5304)"
        fill="white" />
</svg>