<svg width="16" height="16" viewBox="0 0 16 16" fill="none" xmlns="http://www.w3.org/2000/svg">
<path d="M4 13C4 13.5523 3.55228 14 3 14C2.44772 14 2 13.5523 2 13L4 13Z" fill="white"/>
<path d="M14 13C14 13.5523 13.5523 14 13 14C12.4477 14 12 13.5523 12 13L14 13Z" fill="white"/>
<circle cx="8" cy="6" r="3" stroke="white" stroke-width="2"/>
<path fill-rule="evenodd" clip-rule="evenodd" d="M11.4226 8.07129C11.0612 8.66718 10.5486 9.16115 9.938 9.49998C11.1677 10.1823 12 11.494 12 13H14C14 10.9585 12.9804 9.15508 11.4226 8.07129ZM6.062 9.49998C5.45139 9.16115 4.93877 8.66718 4.57737 8.07129C3.0196 9.15508 2 10.9585 2 13H4C4 11.494 4.83229 10.1823 6.062 9.49998Z" fill="white"/>
</svg>
