<svg width="24" height="24" viewBox="0 0 24 24" fill="none" xmlns="http://www.w3.org/2000/svg">
    <path d="M15 2V6C15 6.55228 15.4477 7 16 7H20L15 2Z" fill="white" />
    <path fill-rule="evenodd" clip-rule="evenodd"
        d="M4 4C4 2.89543 4.89543 2 6 2H13V6C13 7.65685 14.3431 9 16 9H20V20C20 21.1046 19.1046 22 18 22H6C4.89543 22 4 21.1046 4 20V4ZM11 17C11 17.5523 11.4477 18 12 18C12.5523 18 13 17.5523 13 17V13.1837L14.2438 14.621C14.6052 15.0387 15.2367 15.0842 15.6544 14.7228C16.072 14.3614 16.1176 13.7299 15.7562 13.3123L12.7562 9.8456C12.5662 9.6261 12.2903 9.5 12 9.5C11.7097 9.5 11.4338 9.6261 11.2438 9.8456L8.24378 13.3123C7.88238 13.7299 7.92798 14.3614 8.34558 14.7228C8.76318 15.0842 9.39478 15.0387 9.75618 14.621L11 13.1837L11 17Z"
        fill="white" />
</svg>