<svg width="24" height="24" viewBox="0 0 24 24" fill="none" xmlns="http://www.w3.org/2000/svg">
    <path fill-rule="evenodd" clip-rule="evenodd"
        d="M6 2C4.89543 2 4 2.89543 4 4V20C4 21.1046 4.89543 22 6 22H18C19.1046 22 20 21.1046 20 20V9H16C14.3431 9 13 7.65685 13 6V2H6ZM13 10.5C13 9.94772 12.5523 9.5 12 9.5C11.4477 9.5 11 9.94772 11 10.5V14.3163L9.75617 12.879C9.39477 12.4613 8.76324 12.4158 8.34562 12.7772C7.928 13.1386 7.88243 13.7701 8.24383 14.1877L11.2438 17.6544C11.4338 17.8739 11.7097 18 12 18C12.2903 18 12.5662 17.8739 12.7562 17.6544L15.7562 14.1877C16.1176 13.7701 16.072 13.1386 15.6544 12.7772C15.2368 12.4158 14.6052 12.4613 14.2438 12.879L13 14.3163V10.5Z"
        fill="white" />
    <path d="M15 2V6C15 6.55228 15.4477 7 16 7H20L15 2Z" fill="white" />
</svg>