<svg width="24" height="24" viewBox="0 0 24 24" fill="none" xmlns="http://www.w3.org/2000/svg">
    <circle cx="12" cy="12" r="8" stroke="white" stroke-width="2" />
    <path
        d="M15 12C15 14.3789 14.5695 16.4844 13.9146 17.9578C13.5866 18.6958 13.222 19.2311 12.8676 19.5683C12.5184 19.9007 12.2269 20 12 20C11.7731 20 11.4816 19.9007 11.1324 19.5683C10.778 19.2311 10.4134 18.6958 10.0854 17.9578C9.43054 16.4844 9 14.3789 9 12C9 9.62114 9.43054 7.51558 10.0854 6.04218C10.4134 5.30422 10.778 4.76892 11.1324 4.43166C11.4816 4.0993 11.7731 4 12 4C12.2269 4 12.5184 4.0993 12.8676 4.43166C13.222 4.76892 13.5866 5.30422 13.9146 6.04218C14.5695 7.51558 15 9.62114 15 12Z"
        stroke="white" stroke-width="2" />
    <path d="M4 12H20" stroke="white" stroke-width="2" />
</svg>