<svg width="24" height="24" viewBox="0 0 24 24" fill="none" xmlns="http://www.w3.org/2000/svg">
    <path
        d="M12 8.67612L11.2883 9.37859L12 10.0997L12.7117 9.37859L12 8.67612ZM9.48398 6.12699L10.1957 5.42452V5.42452L9.48398 6.12699ZM3.99466 11.31L4.73014 10.6324L3.99466 11.31ZM12 20L11.2645 20.6775C11.4538 20.8831 11.7206 21 12 21C12.2794 21 12.5462 20.8831 12.7355 20.6775L12 20ZM20.0053 11.31L19.2699 10.6324L20.0053 11.31ZM14.516 6.12699L15.2277 6.82946V6.82946L14.516 6.12699ZM19.9156 6.12699L19.2039 6.82946V6.82946L19.9156 6.12699ZM4.08436 6.12699L4.79608 6.82946H4.79608L4.08436 6.12699ZM12.7117 7.97365L10.1957 5.42452L8.77227 6.82946L11.2883 9.37859L12.7117 7.97365ZM3.25917 11.9875L11.2645 20.6775L12.7355 19.3225L4.73014 10.6324L3.25917 11.9875ZM12.7355 20.6775L20.7408 11.9875L19.2699 10.6324L11.2645 19.3225L12.7355 20.6775ZM13.8043 5.42452L11.2883 7.97365L12.7117 9.37859L15.2277 6.82946L13.8043 5.42452ZM20.6273 5.42452C18.7527 3.52516 15.679 3.52516 13.8043 5.42452L15.2277 6.82946C16.3193 5.72351 18.1123 5.72352 19.2039 6.82946L20.6273 5.42452ZM20.7408 11.9875C22.4627 10.1183 22.4126 7.2333 20.6273 5.42452L19.2039 6.82946C20.2394 7.87861 20.2682 9.5487 19.2699 10.6324L20.7408 11.9875ZM3.37265 5.42452C1.58736 7.2333 1.53727 10.1183 3.25917 11.9875L4.73014 10.6324C3.73181 9.5487 3.76056 7.87861 4.79608 6.82946L3.37265 5.42452ZM10.1957 5.42452C8.32101 3.52516 5.24733 3.52516 3.37265 5.42452L4.79608 6.82946C5.88765 5.72352 7.68069 5.72352 8.77227 6.82946L10.1957 5.42452Z"
        fill="white" />
</svg>