<svg width="16" height="16" viewBox="0 0 16 16" fill="none" xmlns="http://www.w3.org/2000/svg">
<path fill-rule="evenodd" clip-rule="evenodd" d="M15 3H1V12H15V3ZM1 2C0.447715 2 0 2.44772 0 3V12C0 12.5523 0.447715 13 1 13H15C15.5523 13 16 12.5523 16 12V3C16 2.44772 15.5523 2 15 2H1Z" fill="white"/>
<circle cx="4.5" cy="7.5" r="2.5" fill="white"/>
<path d="M8 5.5C8 5.22386 8.22386 5 8.5 5H13.5C13.7761 5 14 5.22386 14 5.5C14 5.77614 13.7761 6 13.5 6H8.5C8.22386 6 8 5.77614 8 5.5Z" fill="white"/>
<path d="M8 7.5C8 7.22386 8.22386 7 8.5 7H13.5C13.7761 7 14 7.22386 14 7.5C14 7.77614 13.7761 8 13.5 8H8.5C8.22386 8 8 7.77614 8 7.5Z" fill="white"/>
<path d="M8 9.5C8 9.22386 8.22386 9 8.5 9H10.5C10.7761 9 11 9.22386 11 9.5C11 9.77614 10.7761 10 10.5 10H8.5C8.22386 10 8 9.77614 8 9.5Z" fill="white"/>
</svg>
