<svg width="128" height="128" viewBox="0 0 128 128" fill="none" xmlns="http://www.w3.org/2000/svg">
    <g clip-path="url(#clip0_1906_5)">
        <mask id="path-1-inside-1_1906_5" fill="white">
            <path fill-rule="evenodd" clip-rule="evenodd" d="M120.275 33.5188C125.345 42.8787 128 53.3553 128 64L112 64C112 37.4903 90.5097 16 64 16C37.4904 16 16 37.4903 16 64C16 78.019 22.0099 90.6344 31.5939 99.4101L20.7921 111.213C12.9395 104.027 7.00331 94.995 3.52118 84.9359C0.0390433 74.8768 -0.879096 64.1081 0.849894 53.6047C2.57888 43.1013 6.90039 33.1951 13.4231 24.7829C19.9459 16.3708 28.4638 9.71846 38.2057 5.42825C47.9476 1.13803 58.6057 -0.654539 69.215 0.212841C79.8243 1.08022 90.0498 4.58016 98.9655 10.3957C107.881 16.2113 115.205 24.1589 120.275 33.5188Z"/>
        </mask>
        <path fill-rule="evenodd" clip-rule="evenodd" d="M120.275 33.5188C125.345 42.8787 128 53.3553 128 64L112 64C112 37.4903 90.5097 16 64 16C37.4904 16 16 37.4903 16 64C16 78.019 22.0099 90.6344 31.5939 99.4101L20.7921 111.213C12.9395 104.027 7.00331 94.995 3.52118 84.9359C0.0390433 74.8768 -0.879096 64.1081 0.849894 53.6047C2.57888 43.1013 6.90039 33.1951 13.4231 24.7829C19.9459 16.3708 28.4638 9.71846 38.2057 5.42825C47.9476 1.13803 58.6057 -0.654539 69.215 0.212841C79.8243 1.08022 90.0498 4.58016 98.9655 10.3957C107.881 16.2113 115.205 24.1589 120.275 33.5188Z" fill="white"/>
        <path d="M128 64V68H132V64H128ZM120.275 33.5188L116.758 35.4239V35.4239L120.275 33.5188ZM112 64H108V68L112 68V64ZM31.5939 99.4101L34.5447 102.111L37.2445 99.1606L34.2952 96.46L31.5939 99.4101ZM20.7921 111.213L18.0916 114.164L21.0424 116.864L23.7429 113.914L20.7921 111.213ZM3.52118 84.9359L-0.258751 86.2444H-0.25875L3.52118 84.9359ZM0.849894 53.6047L4.79678 54.2544L0.849894 53.6047ZM13.4231 24.7829L10.2621 22.3319L13.4231 24.7829ZM38.2057 5.42825L39.8178 9.08898L38.2057 5.42825ZM69.215 0.212841L69.541 -3.77386L69.215 0.212841ZM98.9655 10.3957L96.7801 13.746V13.746L98.9655 10.3957ZM132 64C132 52.69 129.179 41.5586 123.792 31.6137L116.758 35.4239C121.511 44.1988 124 54.0206 124 64H132ZM112 68L128 68V60L112 60V68ZM64 20C88.3006 20 108 39.6995 108 64H116C116 35.2812 92.7188 12 64 12V20ZM20 64C20 39.6995 39.6995 20 64 20V12C35.2812 12 12 35.2812 12 64H20ZM34.2952 96.46C25.5039 88.4101 20 76.8507 20 64H12C12 79.1873 18.516 92.8586 28.8926 102.36L34.2952 96.46ZM23.7429 113.914L34.5447 102.111L28.6431 96.7096L17.8413 108.513L23.7429 113.914ZM-0.25875 86.2444C3.44102 96.9321 9.74817 106.528 18.0916 114.164L23.4926 108.262C16.1307 101.525 10.5656 93.0578 7.3011 83.6274L-0.25875 86.2444ZM-3.09699 52.955C-4.93404 64.1148 -3.95852 75.5566 -0.258751 86.2444L7.3011 83.6274C4.0366 74.197 3.17585 64.1013 4.79678 54.2544L-3.09699 52.955ZM10.2621 22.3319C3.33167 31.2698 -1.25994 41.7952 -3.09699 52.955L4.79678 54.2544C6.4177 44.4075 10.4691 35.1204 16.5842 27.234L10.2621 22.3319ZM36.5935 1.76751C26.2428 6.32586 17.1925 13.394 10.2621 22.3319L16.5842 27.234C22.6992 19.3476 30.6848 13.1111 39.8178 9.08898L36.5935 1.76751ZM69.541 -3.77386C58.2686 -4.69545 46.9443 -2.79084 36.5935 1.76751L39.8178 9.08898C48.9508 5.06691 58.9428 3.38637 68.8891 4.19954L69.541 -3.77386ZM101.151 7.04547C91.6779 0.866414 80.8134 -2.85227 69.541 -3.77386L68.8891 4.19954C78.8353 5.01271 88.4217 8.2939 96.7801 13.746L101.151 7.04547ZM123.792 31.6137C118.406 21.6688 110.624 13.2245 101.151 7.04547L96.7801 13.746C105.139 19.1981 112.005 26.6489 116.758 35.4239L123.792 31.6137Z" fill="white" mask="url(#path-1-inside-1_1906_5)"/>
    </g>
    <defs>
        <clipPath id="clip0_1906_5">
            <rect width="128" height="128" fill="white"/>
        </clipPath>
    </defs>
</svg>
