<svg width="18" height="18" viewBox="0 0 18 18" fill="none" xmlns="http://www.w3.org/2000/svg">
    <path fill-rule="evenodd" clip-rule="evenodd" d="M2.13379 13.7359L1.77814 16.2254L4.26767 15.8697L11.4692 8.66821L9.33532 6.53433L2.13379 13.7359ZM4.89843 17.3513C4.96508 17.3418 5.02685 17.3109 5.07446 17.2633L13.4495 8.88824C13.571 8.76672 13.571 8.56969 13.4495 8.44817L9.55536 4.55403C9.43384 4.43251 9.23681 4.43251 9.11529 4.55403L0.740248 12.9291C0.692639 12.9767 0.661756 13.0384 0.652234 13.1051L0.00321061 17.6483C-0.0261271 17.8536 0.149899 18.0297 0.355264 18.0003L4.89843 17.3513Z" fill="white"/>
    <path d="M10.9993 3.10968C10.8778 2.98816 10.8778 2.79114 10.9993 2.66962L13.4487 0.220209C13.5703 0.0986881 13.7673 0.0986877 13.8888 0.220209L17.7829 4.11435C17.9045 4.23587 17.9045 4.4329 17.7829 4.55442L15.3335 7.00382C15.212 7.12535 15.015 7.12535 14.8935 7.00382L10.9993 3.10968Z" fill="white"/>
</svg>
