<svg width="25" height="25" viewBox="0 0 25 25" fill="none" xmlns="http://www.w3.org/2000/svg">
<path d="M11.25 20C11.25 19.3096 11.8096 18.75 12.5 18.75C13.1904 18.75 13.75 19.3096 13.75 20C13.75 20.6904 13.1904 21.25 12.5 21.25C11.8096 21.25 11.25 20.6904 11.25 20Z" fill="white"/>
<path d="M12.5 16V16C12.5 15.0452 12.9052 14.1353 13.6149 13.4966L16.2403 11.1337C17.0421 10.4121 17.5 9.38402 17.5 8.30527V8.30527C17.5 6.20368 15.7963 4.5 13.6947 4.5H11.5C9.29086 4.5 7.5 6.29086 7.5 8.5V10" stroke="white" stroke-width="2" stroke-linecap="round" stroke-linejoin="round"/>
</svg>
