<svg width="16" height="16" viewBox="0 0 16 16" fill="none" xmlns="http://www.w3.org/2000/svg">
    <path d="M3.19702 8.8813L3 4.44834C3 4.44834 3.88138 4.64325 5 4.25269C5.54436 4.06264 6.16204 3.71477 6.69484 3.37564C7.48173 2.87479 8.51827 2.87479 9.30516 3.37564C9.83796 3.71477 10.4556 4.06264 11 4.25269C12.1186 4.64325 13 4.44834 13 4.44834L12.803 8.8813C12.7188 10.7743 11.5922 12.4739 9.85982 13.3212L8.89443 13.7934C8.33137 14.0689 7.66863 14.0689 7.10557 13.7934L6.14018 13.3212C4.40777 12.4739 3.28115 10.7743 3.19702 8.8813Z" stroke="white" stroke-linecap="round" stroke-linejoin="round"/>
</svg>
