<svg width="18" height="18" viewBox="0 0 18 18" fill="none" xmlns="http://www.w3.org/2000/svg">
    <path fill-rule="evenodd" clip-rule="evenodd" d="M10.3431 1.28568H13.1708C14.5909 1.28568 15.7422 2.43694 15.7422 3.8571H2.24219C2.24219 2.43694 3.39346 1.28568 4.81362 1.28568H7.64307C7.64309 0.575613 8.21871 0 8.92878 0H9.05735C9.76742 0 10.343 0.575613 10.3431 1.28568ZM15.7422 5.14284H2.24219V15.4286C2.24219 16.8487 3.39346 18 4.81362 18H13.1708C14.5909 18 15.7422 16.8487 15.7422 15.4286V5.14284ZM5.92381 7.71431H4.69653V14.815C4.69653 15.1539 4.97127 15.4286 5.31017 15.4286C5.64907 15.4286 5.92381 15.1539 5.92381 14.815V7.71431ZM8.37915 7.71431H9.60642V14.815C9.60642 15.1539 9.33169 15.4286 8.99279 15.4286C8.65388 15.4286 8.37915 15.1539 8.37915 14.815V7.71431ZM13.2868 7.71431H12.0596V14.815C12.0596 15.1539 12.3343 15.4286 12.6732 15.4286C13.0121 15.4286 13.2868 15.1539 13.2868 14.815V7.71431Z" fill="white"/>
</svg>
