<svg width="18" height="18" viewBox="0 0 18 18" fill="none" xmlns="http://www.w3.org/2000/svg">
    <mask id="path-1-inside-1_6564_6334" fill="white">
        <path fill-rule="evenodd" clip-rule="evenodd"
            d="M15.5614 4.55988L12.5607 7.56066C11.9749 8.14645 11.0251 8.14645 10.4393 7.56066C9.85355 6.97487 9.85355 6.02513 10.4393 5.43934L13.4401 2.43856C12.8527 2.15743 12.1947 2 11.5 2C9.01472 2 7 4.01472 7 6.5C7 8.98528 9.01472 11 11.5 11C13.9853 11 16 8.98528 16 6.5C16 5.80528 15.8426 5.14733 15.5614 4.55988Z" />
    </mask>
    <path fill-rule="evenodd" clip-rule="evenodd"
        d="M15.5614 4.55988L12.5607 7.56066C11.9749 8.14645 11.0251 8.14645 10.4393 7.56066C9.85355 6.97487 9.85355 6.02513 10.4393 5.43934L13.4401 2.43856C12.8527 2.15743 12.1947 2 11.5 2C9.01472 2 7 4.01472 7 6.5C7 8.98528 9.01472 11 11.5 11C13.9853 11 16 8.98528 16 6.5C16 5.80528 15.8426 5.14733 15.5614 4.55988Z"
        fill="white" />
    <path
        d="M15.5614 4.55988L16.4635 4.12821L15.8535 2.8536L14.8543 3.85277L15.5614 4.55988ZM12.5607 7.56066L13.2678 8.26777L13.2678 8.26777L12.5607 7.56066ZM10.4393 7.56066L9.73223 8.26777L9.73223 8.26777L10.4393 7.56066ZM10.4393 5.43934L9.73223 4.73223L9.73223 4.73223L10.4393 5.43934ZM13.4401 2.43856L14.1472 3.14566L15.1464 2.14649L13.8718 1.53653L13.4401 2.43856ZM14.8543 3.85277L11.8536 6.85355L13.2678 8.26777L16.2686 5.26698L14.8543 3.85277ZM11.8536 6.85355C11.6583 7.04882 11.3417 7.04882 11.1464 6.85355L9.73223 8.26777C10.7085 9.24408 12.2915 9.24408 13.2678 8.26777L11.8536 6.85355ZM11.1464 6.85355C10.9512 6.65829 10.9512 6.34171 11.1464 6.14645L9.73223 4.73223C8.75592 5.70854 8.75592 7.29146 9.73223 8.26777L11.1464 6.85355ZM11.1464 6.14645L14.1472 3.14566L12.733 1.73145L9.73223 4.73223L11.1464 6.14645ZM11.5 3C12.0422 3 12.5529 3.12257 13.0085 3.34059L13.8718 1.53653C13.1525 1.19228 12.3473 1 11.5 1V3ZM8 6.5C8 4.567 9.567 3 11.5 3V1C8.46243 1 6 3.46243 6 6.5H8ZM11.5 10C9.567 10 8 8.433 8 6.5H6C6 9.53757 8.46243 12 11.5 12V10ZM15 6.5C15 8.433 13.433 10 11.5 10V12C14.5376 12 17 9.53757 17 6.5H15ZM14.6594 4.99155C14.8774 5.44711 15 5.95784 15 6.5H17C17 5.65272 16.8077 4.84755 16.4635 4.12821L14.6594 4.99155Z"
        fill="white" mask="url(#path-1-inside-1_6564_6334)" />
    <path d="M9 9L4 14" stroke="white" stroke-width="4" stroke-linecap="round" stroke-linejoin="round" />
</svg>