<svg width="16" height="16" viewBox="0 0 16 16" fill="none" xmlns="http://www.w3.org/2000/svg">
<path d="M4.5 11V13H11.5V11H4.5Z" fill="white"/>
<path d="M13.3838 4.46789C13.6422 3.97979 13.456 3.37462 12.9679 3.11621C12.4798 2.8578 11.8746 3.04401 11.6162 3.53211L13.3838 4.46789ZM8.88379 12.9679L13.3838 4.46789L11.6162 3.53211L7.11621 12.0321L8.88379 12.9679Z" fill="white"/>
<path fill-rule="evenodd" clip-rule="evenodd" d="M12.3043 9.42253L12.9806 12.8039C13.0393 13.0977 12.9633 13.4023 12.7733 13.634C12.5834 13.8657 12.2996 14 12 14H4C3.70041 14 3.4166 13.8657 3.22666 13.634C3.03672 13.4023 2.96067 13.0977 3.01942 12.8039L5.01942 2.80388C5.11291 2.33646 5.52332 2 6 2H10C10.3177 2 10.606 2.14948 10.7906 2.38759L10.4875 2.99377L9.40998 5.1489L9.1802 4H6.81981L5.21981 12H10.7802L10.7558 11.8779L11.0125 12.0062L12.3043 9.42253Z" fill="white"/>
</svg>
