<svg width="16" height="16" viewBox="0 0 16 16" fill="none" xmlns="http://www.w3.org/2000/svg">
<mask id="path-1-inside-1_5037_15101" fill="white">
<path fill-rule="evenodd" clip-rule="evenodd" d="M8 14C10.7614 14 13 11.7614 13 9C13 6.13177 11.4575 4.29188 10.5846 3.48034C10.2565 3.17528 9.76498 3.20145 9.42483 3.49301L9.04151 3.82156C8.47999 3.29334 7.96854 2.83705 7.598 2.51327C7.24897 2.20828 6.74031 2.19798 6.39787 2.51034C5.28081 3.52926 3 5.97953 3 9C3 11.7614 5.23858 14 8 14Z"/>
</mask>
<path d="M10.5846 3.48034L11.6059 2.38178V2.38178L10.5846 3.48034ZM9.42483 3.49301L10.401 4.63189V4.63189L9.42483 3.49301ZM9.04151 3.82156L8.01374 4.91412C8.57185 5.43914 9.43593 5.45911 10.0177 4.96045L9.04151 3.82156ZM7.598 2.51327L6.611 3.64279L6.611 3.64279L7.598 2.51327ZM6.39787 2.51034L7.40873 3.61856V3.61856L6.39787 2.51034ZM11.5 9C11.5 10.933 9.933 12.5 8 12.5V15.5C11.5899 15.5 14.5 12.5899 14.5 9H11.5ZM9.56324 4.5789C10.2751 5.2407 11.5 6.71134 11.5 9H14.5C14.5 5.5522 12.6399 3.34306 11.6059 2.38178L9.56324 4.5789ZM10.401 4.63189C10.3187 4.70243 10.1973 4.75893 10.0445 4.76253C9.88205 4.76635 9.70148 4.70742 9.56324 4.5789L11.6059 2.38178C10.6354 1.47947 9.27691 1.64418 8.44864 2.35413L10.401 4.63189ZM10.0177 4.96045L10.401 4.63189L8.44864 2.35412L8.06533 2.68268L10.0177 4.96045ZM6.611 3.64279C6.97132 3.95765 7.46866 4.40136 8.01374 4.91412L10.0693 2.72901C9.49133 2.18532 8.96576 1.71646 8.585 1.38374L6.611 3.64279ZM7.40873 3.61856C7.15146 3.85324 6.7989 3.80699 6.611 3.64279L8.585 1.38374C7.69904 0.609576 6.32917 0.542724 5.38701 1.40212L7.40873 3.61856ZM4.5 9C4.5 7.86849 4.92945 6.7798 5.5462 5.80886C6.16063 4.84155 6.90838 4.07496 7.40873 3.61856L5.38701 1.40212C4.7703 1.96465 3.81911 2.93265 3.01388 4.20032C2.21096 5.46436 1.5 7.11105 1.5 9H4.5ZM8 12.5C6.067 12.5 4.5 10.933 4.5 9H1.5C1.5 12.5899 4.41015 15.5 8 15.5V12.5Z" fill="white" mask="url(#path-1-inside-1_5037_15101)"/>
<path d="M10 9.91667C10 11.0673 9.10457 12 8 12C6.89543 12 6 11.0673 6 9.91667C6 8.79468 6.90638 7.86151 7.4988 7.37142C7.79344 7.12767 8.20656 7.12767 8.5012 7.37142C9.09362 7.86151 10 8.79468 10 9.91667Z" fill="white"/>
</svg>
