<svg width="24" height="24" viewBox="0 0 24 24" fill="none" xmlns="http://www.w3.org/2000/svg">
    <path
        d="M18.9419 5.25623C17.6279 4.66091 16.2407 4.23857 14.8158 4C14.6208 4.34494 14.4443 4.69983 14.2872 5.0632C12.7694 4.83686 11.2258 4.83686 9.70801 5.0632C9.55079 4.69987 9.37437 4.34498 9.17946 4C7.75361 4.24059 6.3655 4.66393 5.05016 5.25934C2.43887 9.0825 1.73099 12.8107 2.08493 16.486C3.61417 17.6041 5.32582 18.4544 7.14548 19C7.55522 18.4547 7.91778 17.8761 8.22933 17.2705C7.63759 17.0518 7.06646 16.782 6.52255 16.4642C6.6657 16.3615 6.8057 16.2556 6.94098 16.1529C8.52364 16.8894 10.251 17.2713 12 17.2713C13.7489 17.2713 15.4763 16.8894 17.0589 16.1529C17.1958 16.2634 17.3358 16.3692 17.4774 16.4642C16.9324 16.7825 16.3602 17.0529 15.7675 17.2721C16.0786 17.8774 16.4412 18.4555 16.8513 19C18.6725 18.4566 20.3855 17.6067 21.915 16.4875C22.3303 12.2254 21.2055 8.53144 18.9419 5.25623ZM8.67765 14.2257C7.69134 14.2257 6.87649 13.34 6.87649 12.2503C6.87649 11.1606 7.66302 10.2671 8.6745 10.2671C9.68598 10.2671 10.4945 11.1606 10.4772 12.2503C10.4599 13.34 9.68284 14.2257 8.67765 14.2257ZM15.3223 14.2257C14.3344 14.2257 13.5227 13.34 13.5227 12.2503C13.5227 11.1606 14.3092 10.2671 15.3223 10.2671C16.3353 10.2671 17.1376 11.1606 17.1203 12.2503C17.103 13.34 16.3275 14.2257 15.3223 14.2257Z"
        fill="white" />
</svg>