<svg width="16" height="16" viewBox="0 0 16 16" fill="none" xmlns="http://www.w3.org/2000/svg">
<path d="M5.97623 2.45602C6.07563 1.84799 6.92437 1.848 7.02377 2.45602L7.5787 5.85067C7.60863 6.03372 7.72672 6.18863 7.89233 6.26207L10.679 7.49786C11.107 7.68766 11.107 8.31234 10.679 8.50213L7.89233 9.73793C7.72672 9.81137 7.60863 9.96628 7.5787 10.1493L7.02377 13.544C6.92437 14.152 6.07563 14.152 5.97623 13.544L5.4213 10.1493C5.39137 9.96628 5.27328 9.81137 5.10767 9.73793L2.32099 8.50213C1.893 8.31234 1.893 7.68766 2.32099 7.49786L5.10767 6.26207C5.27328 6.18863 5.39137 6.03372 5.4213 5.85067L5.97623 2.45602Z" fill="white"/>
<path d="M11.7637 2.19907C11.811 1.93365 12.189 1.93364 12.2363 2.19907L12.4859 3.5992C12.5005 3.68101 12.5558 3.74954 12.6323 3.78067L13.8498 4.27581C14.0501 4.35725 14.0501 4.64275 13.8498 4.72419L12.6323 5.21933C12.5558 5.25046 12.5005 5.31899 12.4859 5.4008L12.2363 6.80093C12.189 7.06635 11.811 7.06635 11.7637 6.80093L11.5141 5.4008C11.4995 5.31899 11.4442 5.25046 11.3677 5.21933L10.1502 4.72419C9.94994 4.64275 9.94994 4.35725 10.1502 4.27581L11.3677 3.78067C11.4442 3.74954 11.4995 3.68101 11.5141 3.5992L11.7637 2.19907Z" fill="white"/>
<circle cx="11.5" cy="12.5" r="1.5" fill="white"/>
</svg>
