<svg width="16" height="16" viewBox="0 0 16 16" fill="none" xmlns="http://www.w3.org/2000/svg">
<path d="M3 3L13 13" stroke="white" stroke-width="2" stroke-linecap="round"/>
<path fill-rule="evenodd" clip-rule="evenodd" d="M4.46774 3.88199C3.03519 4.6481 1.88043 5.86575 1.1936 7.34478C1.00095 7.75964 1.00089 8.2388 1.19345 8.6537C2.38457 11.2202 4.98452 13 8.00017 13C9.58221 13 11.0498 12.5102 12.2597 11.6739L10.8132 10.2274C9.98955 10.7185 9.0273 11 8.00017 11C5.86576 11 4.01146 9.78417 3.09909 7.99946C3.70555 6.81381 4.72776 5.87936 5.9716 5.38586L4.46774 3.88199ZM12.3197 8.90557C12.5414 8.62488 12.7363 8.32195 12.9007 8.00056C12.0503 6.33717 10.3818 5.16794 8.43083 5.01665L6.55347 3.1393C7.02141 3.04789 7.50492 3 7.99961 3C11.0153 3 13.6152 4.77982 14.8063 7.34632C14.9989 7.76122 14.9988 8.24038 14.8062 8.65523C14.5251 9.26051 14.1657 9.82201 13.7409 10.3267L12.3197 8.90557ZM6.90909 6.32334C6.36173 6.68019 5.99992 7.29782 5.99992 7.99996C5.99992 9.10453 6.89535 9.99996 7.99992 9.99996C8.70205 9.99996 9.31968 9.63814 9.67653 9.09078L6.90909 6.32334Z" fill="white"/>
</svg>
