<svg width="16" height="16" viewBox="0 0 16 16" fill="none" xmlns="http://www.w3.org/2000/svg">
<mask id="path-1-inside-1_6932_14789" fill="white">
<path fill-rule="evenodd" clip-rule="evenodd" d="M1.19345 8.6537C1.00089 8.2388 1.00095 7.75964 1.1936 7.34478C2.38504 4.77911 4.98456 3 7.99961 3C11.0153 3 13.6152 4.77982 14.8063 7.34632C14.9989 7.76122 14.9988 8.24038 14.8062 8.65523C13.6147 11.2209 11.0152 13 8.00017 13C4.98452 13 2.38457 11.2202 1.19345 8.6537Z"/>
</mask>
<path d="M14.8063 7.34632L16.6205 6.50437L14.8063 7.34632ZM14.8062 8.65523L12.9922 7.81287L14.8062 8.65523ZM3.00755 8.18715C3.88338 6.30112 5.79161 5 7.99961 5V1C4.17751 1 0.886703 3.2571 -0.620356 6.50242L3.00755 8.18715ZM7.99961 5C10.208 5 12.1166 6.30164 12.9922 8.18827L16.6205 6.50437C15.1138 3.258 11.8225 1 7.99961 1V5ZM12.9922 7.81287C12.1164 9.6989 10.2082 11 8.00017 11V15C11.8223 15 15.1131 12.7429 16.6201 9.4976L12.9922 7.81287ZM8.00017 11C5.79174 11 3.88319 9.69838 3.00759 7.81175L-0.620694 9.49565C0.885957 12.742 4.17731 15 8.00017 15V11ZM12.9922 8.18827C12.9369 8.06908 12.9369 7.93206 12.9922 7.81287L16.6201 9.4976C17.0608 8.54871 17.0609 7.45336 16.6205 6.50437L12.9922 8.18827ZM-0.620356 6.50242C-1.061 7.45131 -1.06112 8.54666 -0.620694 9.49565L3.00759 7.81175C3.06291 7.93094 3.0629 8.06796 3.00755 8.18715L-0.620356 6.50242Z" fill="white" mask="url(#path-1-inside-1_6932_14789)"/>
<circle cx="8" cy="8" r="2" fill="white"/>
</svg>
