<svg width="24" height="24" viewBox="0 0 24 24" fill="none" xmlns="http://www.w3.org/2000/svg">
<path d="M15 3V6.2C15 6.64182 15.3582 7 15.8 7H19L15 3Z" fill="white"/>
<path d="M12.875 6.59961C12.875 8.09077 14.0502 9.2998 15.5 9.2998H19V19.2002C18.9999 20.1942 18.2165 21 17.25 21H6.75C5.78356 21 5.0001 20.1942 5 19.2002V4.7998C5.0001 3.80578 5.78356 3 6.75 3H12.875V6.59961ZM12 9.5C11.7098 9.5 11.4341 9.62628 11.2441 9.8457L8.24414 13.3125C7.88274 13.7301 7.92811 14.3613 8.3457 14.7227C8.76323 15.084 9.39443 15.0386 9.75586 14.6211L11 13.1836V17C11 17.5523 11.4477 18 12 18C12.5523 18 13 17.5523 13 17V13.1836L14.2441 14.6211C14.6056 15.0386 15.2367 15.084 15.6543 14.7227C16.0719 14.3613 16.1172 13.7301 15.7559 13.3125L12.7559 9.8457C12.5659 9.62627 12.2902 9.5 12 9.5Z" fill="white"/>
</svg>
