<svg width="24" height="24" viewBox="0 0 24 24" fill="none" xmlns="http://www.w3.org/2000/svg">
<path d="M15 3V6.2C15 6.64182 15.3582 7 15.8 7H19L15 3Z" fill="white"/>
<path d="M12.875 6.59961C12.875 8.09077 14.0502 9.2998 15.5 9.2998H19V19.2002C18.9999 20.1942 18.2165 21 17.25 21H6.75C5.78356 21 5.0001 20.1942 5 19.2002V4.7998C5.0001 3.80578 5.78356 3 6.75 3H12.875V6.59961ZM12 9.5C11.4477 9.5 11 9.94772 11 10.5V14.3164L9.75586 12.8789C9.39443 12.4614 8.76323 12.416 8.3457 12.7773C7.92811 13.1387 7.88274 13.7699 8.24414 14.1875L11.2441 17.6543C11.4341 17.8737 11.7098 18 12 18C12.2902 18 12.5659 17.8737 12.7559 17.6543L15.7559 14.1875C16.1172 13.7699 16.0719 13.1387 15.6543 12.7773C15.2367 12.416 14.6056 12.4614 14.2441 12.8789L13 14.3164V10.5C13 9.94773 12.5523 9.50001 12 9.5Z" fill="white"/>
</svg>
