<svg width="24" height="24" viewBox="0 0 24 24" fill="none" xmlns="http://www.w3.org/2000/svg">
<circle cx="12" cy="12" r="8" stroke="white" stroke-width="2"/>
<path d="M12 4C12.2269 4 12.518 4.09945 12.8672 4.43164C13.2216 4.76891 13.5871 5.30403 13.915 6.04199C14.5699 7.51539 15 9.62114 15 12C15 14.3789 14.5699 16.4846 13.915 17.958C13.5871 18.696 13.2216 19.2311 12.8672 19.5684C12.518 19.9005 12.2269 20 12 20C11.7731 20 11.482 19.9005 11.1328 19.5684C10.7784 19.2311 10.4129 18.696 10.085 17.958C9.43012 16.4846 9 14.3789 9 12C9 9.62114 9.43012 7.51539 10.085 6.04199C10.4129 5.30403 10.7784 4.76891 11.1328 4.43164C11.482 4.09945 11.7731 4 12 4Z" stroke="white" stroke-width="2"/>
<path d="M4 12H20" stroke="white" stroke-width="2"/>
</svg>
