<svg width="24" height="24" viewBox="0 0 24 24" fill="none" xmlns="http://www.w3.org/2000/svg">
<path d="M12 7.67612L11.2883 8.37859L12 9.09967L12.7117 8.37859L12 7.67612ZM9.48398 5.12699L10.1957 4.42452V4.42452L9.48398 5.12699ZM3.99466 10.31L4.73014 9.63242L3.99466 10.31ZM12 19L11.2645 19.6775C11.4538 19.8831 11.7206 20 12 20C12.2794 20 12.5462 19.8831 12.7355 19.6775L12 19ZM20.0053 10.31L19.2699 9.63242L20.0053 10.31ZM14.516 5.12699L15.2277 5.82946V5.82946L14.516 5.12699ZM19.9156 5.12699L19.2039 5.82946V5.82946L19.9156 5.12699ZM4.08436 5.12699L4.79608 5.82946H4.79608L4.08436 5.12699ZM12.7117 6.97365L10.1957 4.42452L8.77227 5.82946L11.2883 8.37859L12.7117 6.97365ZM3.25917 10.9875L11.2645 19.6775L12.7355 18.3225L4.73014 9.63242L3.25917 10.9875ZM12.7355 19.6775L20.7408 10.9875L19.2699 9.63242L11.2645 18.3225L12.7355 19.6775ZM13.8043 4.42452L11.2883 6.97365L12.7117 8.37859L15.2277 5.82946L13.8043 4.42452ZM20.6273 4.42452C18.7527 2.52516 15.679 2.52516 13.8043 4.42452L15.2277 5.82946C16.3193 4.72351 18.1123 4.72352 19.2039 5.82946L20.6273 4.42452ZM20.7408 10.9875C22.4627 9.11833 22.4126 6.2333 20.6273 4.42452L19.2039 5.82946C20.2394 6.87861 20.2682 8.5487 19.2699 9.63242L20.7408 10.9875ZM3.37265 4.42452C1.58736 6.2333 1.53727 9.11832 3.25917 10.9875L4.73014 9.63242C3.73181 8.5487 3.76056 6.87861 4.79608 5.82946L3.37265 4.42452ZM10.1957 4.42452C8.32101 2.52516 5.24733 2.52516 3.37265 4.42452L4.79608 5.82946C5.88765 4.72352 7.68069 4.72352 8.77227 5.82946L10.1957 4.42452Z" fill="white"/>
</svg>
