<svg width="24" height="24" viewBox="0 0 24 24" fill="none" xmlns="http://www.w3.org/2000/svg">
<path d="M11.9887 2C6.71121 2 2.4077 6.0452 2 11.1977L7.36806 13.4124C7.82106 13.096 8.36467 12.9153 8.95357 12.9153C8.99887 12.9153 9.06682 12.9153 9.11212 12.9153L11.513 9.48023C11.513 9.45763 11.513 9.45763 11.513 9.43503C11.513 7.35593 13.2118 5.66102 15.2956 5.66102C17.3794 5.66102 19.0781 7.35593 19.0781 9.43503C19.0781 11.5141 17.3794 13.209 15.2956 13.209C15.2729 13.209 15.2276 13.209 15.205 13.209L11.8075 15.6271C11.8075 15.6723 11.8075 15.7175 11.8075 15.7627C11.8075 17.322 10.5391 18.5876 8.97622 18.5876C7.59456 18.5876 6.46206 17.6158 6.19026 16.3051L2.33975 14.7232C3.51755 18.9266 7.39071 22 11.9887 22C17.5153 22 22 17.5254 22 12.0113C22 6.47458 17.5153 2 11.9887 2Z" fill="white"/>
<path d="M8.27407 17.1638L7.05096 16.6667C7.27746 17.1186 7.63986 17.5028 8.13817 17.7062C9.22537 18.1582 10.4711 17.6384 10.9241 16.5537C11.1506 16.0339 11.1506 15.4463 10.9241 14.9266C10.6976 14.4068 10.2899 14 9.76897 13.774C9.24802 13.548 8.68177 13.5706 8.20612 13.7514L9.47452 14.2712C10.2673 14.6102 10.6523 15.5141 10.3126 16.3051C9.99547 17.1186 9.06682 17.5028 8.27407 17.1638Z" fill="white"/>
<path d="M17.8097 9.41243C17.8097 8.0339 16.6772 6.90395 15.2956 6.90395C13.9139 6.90395 12.7814 8.0339 12.7814 9.41243C12.7814 10.791 13.9139 11.9209 15.2956 11.9209C16.6772 11.9209 17.8097 10.8136 17.8097 9.41243ZM13.393 9.41243C13.393 8.37288 14.231 7.53672 15.2956 7.53672C16.3601 7.53672 17.1982 8.37288 17.1982 9.41243C17.1982 10.452 16.3601 11.2881 15.2956 11.2881C14.231 11.2881 13.393 10.452 13.393 9.41243Z" fill="white"/>
</svg>
