<svg width="16" height="16" viewBox="0 0 16 16" fill="none" xmlns="http://www.w3.org/2000/svg">
<path fill-rule="evenodd" clip-rule="evenodd" d="M1.24747 7.07177C0.953319 7.65501 0.953319 8.345 1.24747 8.92823C2.46302 11.3385 5.02991 13 7.99989 13C10.9699 13 13.5368 11.3385 14.7523 8.92823C15.0465 8.345 15.0465 7.65501 14.7523 7.07177C13.5368 4.66155 10.9699 3 7.99989 3C5.02991 3 2.46302 4.66155 1.24747 7.07177ZM8 12C10.2091 12 12 10.2091 12 8C12 5.79086 10.2091 4 8 4C5.79086 4 4 5.79086 4 8C4 10.2091 5.79086 12 8 12Z" fill="white"/>
<path fill-rule="evenodd" clip-rule="evenodd" d="M10.4743 7.6405C10.2122 7.86464 9.87192 8 9.5 8C8.67157 8 8 7.32843 8 6.5C8 6.12808 8.13536 5.78777 8.3595 5.52566C8.2421 5.50875 8.12208 5.5 8 5.5C6.61929 5.5 5.5 6.61929 5.5 8C5.5 9.38071 6.61929 10.5 8 10.5C9.38071 10.5 10.5 9.38071 10.5 8C10.5 7.87792 10.4912 7.7579 10.4743 7.6405Z" fill="white"/>
</svg>
